<?xml version="1.0" encoding="iso-8859-1"?>
<!-- Generator: Adobe Illustrator 19.0.0, SVG Export Plug-In . SVG Version: 6.00 Build 0)  -->
<svg xmlns="http://www.w3.org/2000/svg" xmlns:xlink="http://www.w3.org/1999/xlink" version="1.1" id="Layer_1" x="0px" y="0px" viewBox="0 0 511.999 511.999" style="enable-background:new 0 0 511.999 511.999;" xml:space="preserve" width="512px" height="512px">
<g>
	<g>
		<g>
			<path d="M465.917,223.044c0-26.065-21.206-47.269-47.271-47.269h-60.161c1.839-7.473,2.882-15.255,3.03-23.253     c16.222-5.108,13.568-18.875,12.414-24.85c-4.459-23.115-15.446-43.621-30.812-59.778c0.101-0.025,0.206-0.048,0.306-0.073     c27.525-6.933,41.481-16.801,41.481-29.33c0-12.53-13.956-22.398-41.481-29.331C319.973,3.253,288.926,0,256.001,0     c-32.926,0-63.973,3.253-87.425,9.16c-27.525,6.933-41.481,16.801-41.481,29.331c0,12.529,13.956,22.397,41.481,29.33     c0.1,0.025,0.206,0.048,0.306,0.073c-15.366,16.157-26.353,36.662-30.812,59.777c-1.154,5.977-3.808,19.744,12.414,24.851     c0.147,7.998,1.189,15.78,3.03,23.253H93.353c-26.065,0-47.271,21.204-47.271,47.269c0,21.919,14.999,40.398,35.271,45.722     c-8.166,8.5-13.203,20.029-13.203,32.719c0,26.064,21.204,47.268,47.268,47.268h29.161l-32.528,130.931     c-2.054,8.272-0.483,16.534,4.313,22.666c4.795,6.131,12.433,9.648,20.955,9.648h237.361c8.523,0,16.163-3.517,20.957-9.649     c4.795-6.132,6.367-14.394,4.311-22.666l-32.53-130.931h29.159c26.064,0,47.268-21.204,47.268-47.268     c0-12.691-5.035-24.219-13.203-32.719C450.918,263.442,465.917,244.963,465.917,223.044z M143.192,38.515     c0.232-1.458,6.153-8.134,30.884-14.132c22.024-5.342,51.12-8.285,81.924-8.285c30.803,0,59.898,2.943,81.923,8.285     c24.596,5.966,30.586,12.601,30.879,14.108C368.51,40,362.515,46.634,337.921,52.6c-3.065,0.744-6.28,1.435-9.604,2.084     c-20.278-15.291-45.435-24.241-72.316-24.241c-26.881,0-52.037,8.951-72.316,24.241c-3.324-0.649-6.539-1.34-9.603-2.084     C149.348,46.601,143.425,39.926,143.192,38.515z M304.065,58.331c-14.933,1.668-31.238,2.551-48.065,2.551     s-33.133-0.884-48.067-2.551c14.472-7.554,30.86-11.79,48.066-11.79C273.205,46.541,289.593,50.777,304.065,58.331z      M153.303,136.324c-0.086-0.496-0.141-1.903,0.574-5.603c4.553-23.596,16.967-44.043,34.19-58.887     c20.045,3.346,43.468,5.145,67.933,5.145c24.465,0,47.885-1.799,67.931-5.145c17.223,14.842,29.638,35.291,34.19,58.888     c0.715,3.699,0.66,5.106,0.574,5.602c-0.284,0.187-1.055,0.61-2.763,1.061c-7.252,1.921-14.754,2.896-22.3,2.896     c-24.88,0-48.644-10.687-65.201-29.322c-3.416-3.844-7.833-5.962-12.438-5.962c-4.597,0-9.011,2.117-12.426,5.962     c-16.556,18.635-40.32,29.322-65.201,29.322c-7.545,0-15.047-0.974-22.302-2.896     C154.358,136.934,153.586,136.511,153.303,136.324z M255.999,239.992c-47.586,0-86.599-37.357-89.282-84.283     c3.861,0.437,7.751,0.671,11.65,0.671c29.476,0,57.627-12.657,77.235-34.728c0.156-0.175,0.29-0.304,0.397-0.394     c0.108,0.091,0.243,0.218,0.399,0.395c19.608,22.071,47.759,34.728,77.235,34.728c3.9,0,7.788-0.233,11.65-0.67     C342.599,202.635,303.586,239.992,255.999,239.992z M322.029,232.819l39.564,159.242c-2.687,3.238-5.19,6.849-7.464,10.79     c-7.82,13.545-17.785,21.005-28.061,21.005s-20.242-7.46-28.062-21.005c-10.815-18.735-25.73-29.054-42-29.054     c-0.001,0,0,0-0.001,0c-16.268,0-31.186,10.319-42.003,29.054c-7.82,13.546-17.786,21.005-28.062,21.005     c-10.275,0-20.24-7.46-28.059-21.006c-2.278-3.945-4.782-7.557-7.467-10.793l39.56-159.238     c18.092,14.549,41.059,23.271,66.029,23.271C280.97,256.09,303.938,247.368,322.029,232.819z M62.18,223.044     c0-17.188,13.984-31.171,31.172-31.171h65.537c4.403,10.309,10.404,19.779,17.685,28.1l-8.507,34.243H93.353     C76.165,254.215,62.18,240.232,62.18,223.044z M115.42,332.657v-0.001c-17.187,0-31.17-13.983-31.17-31.17     c0-17.188,13.983-31.171,31.17-31.171h48.649l-15.489,62.343H115.42z M384.327,483.568c0.865,3.483,0.379,6.631-1.369,8.868     c-1.748,2.235-4.687,3.466-8.276,3.466h-237.36c-3.589,0-6.527-1.231-8.276-3.466c-1.748-2.236-2.234-5.385-1.369-8.869     l17.533-70.575c10.7,17.395,25.083,26.961,40.728,26.961c0.001,0,0,0,0.001,0c16.268,0,31.186-10.319,42.003-29.054     c7.82-13.545,17.787-21.005,28.063-21.005c10.274,0.001,20.239,7.46,28.058,21.005c10.818,18.736,25.734,29.054,42.004,29.054     c15.643,0,30.025-9.564,40.727-26.957L384.327,483.568z M396.579,332.656H363.42l-15.489-62.343h48.648     c17.187,0,31.17,13.984,31.17,31.171C427.749,318.673,413.767,332.656,396.579,332.656z M418.646,254.215h-74.715l-8.507-34.244     c7.283-8.321,13.282-17.791,17.685-28.1h65.537c17.188,0,31.172,13.983,31.172,31.171     C449.819,240.231,435.834,254.215,418.646,254.215z" fill="#999999"/>
			<circle cx="211.285" cy="170.055" r="8.049" fill="#999999"/>
			<circle cx="300.714" cy="170.055" r="8.049" fill="#999999"/>
		</g>
	</g>
</g>
<g>
</g>
<g>
</g>
<g>
</g>
<g>
</g>
<g>
</g>
<g>
</g>
<g>
</g>
<g>
</g>
<g>
</g>
<g>
</g>
<g>
</g>
<g>
</g>
<g>
</g>
<g>
</g>
<g>
</g>
</svg>
