<?xml version="1.0" encoding="iso-8859-1"?>
<!-- Generator: Adobe Illustrator 19.0.0, SVG Export Plug-In . SVG Version: 6.00 Build 0)  -->
<svg version="1.1" id="Capa_1" xmlns="http://www.w3.org/2000/svg" xmlns:xlink="http://www.w3.org/1999/xlink" x="0px" y="0px"
	 viewBox="0 0 368.452 368.452" style="enable-background:new 0 0 368.452 368.452;" xml:space="preserve">
<g id="XMLID_931_">
	<polygon id="XMLID_957_" style="fill:#EA348B;" points="94.581,8.452 87.613,65.436 36.725,92.003 88.767,116.233 90.826,128.452 
		136.6,128.452 	"/>
	<polygon id="XMLID_958_" style="fill:#B02768;" points="188.228,128.452 166.363,89.062 191.919,37.659 135.573,48.642 
		94.581,8.452 136.6,128.452 	"/>
	<polygon id="XMLID_959_" style="fill:#FFDA44;" points="184.226,328.452 184.226,208.452 54.226,208.452 54.226,368.452 
		154.226,368.452 154.226,328.452 	"/>
	<polygon id="XMLID_960_" style="fill:#FF9811;" points="184.226,328.452 214.226,328.452 214.226,368.452 314.226,368.452 
		314.226,208.452 184.226,208.452 	"/>
	<polygon id="XMLID_961_" style="fill:#FFF0B4;" points="314.226,128.452 188.228,128.452 136.6,128.452 90.826,128.452 
		54.226,128.452 24.226,208.452 54.226,208.452 184.226,208.452 314.226,208.452 344.226,208.452 	"/>
	<polygon id="XMLID_962_" style="fill:#CCF8F3;" points="214.832,88.314 252.092,81.576 277.787,0 251.601,27.35 214.226,21.288 
		232.149,54.642 	"/>
	<polygon id="XMLID_963_" style="fill:#00D7DF;" points="278.767,108.452 283.872,70.932 317.672,53.869 283.57,37.419 277.787,0 
		252.092,81.576 	"/>
	<polygon id="XMLID_964_" style="fill:#FFF0B4;" points="184.226,328.452 154.226,328.452 154.226,368.452 184.226,368.452 
		214.226,368.452 214.226,328.452 	"/>
</g>
<g>
</g>
<g>
</g>
<g>
</g>
<g>
</g>
<g>
</g>
<g>
</g>
<g>
</g>
<g>
</g>
<g>
</g>
<g>
</g>
<g>
</g>
<g>
</g>
<g>
</g>
<g>
</g>
<g>
</g>
</svg>
